<svg width="203" height="66" viewBox="0 0 203 66" fill="none" xmlns="http://www.w3.org/2000/svg">
<g filter="url(#filter0_i_121_764)">
<path d="M0.826538 20C0.826538 8.95431 9.78084 0 20.8265 0H182.347C193.392 0 202.347 8.95431 202.347 20V66H0.826538V20Z" fill="#B48F4B"/>
</g>
<path d="M20.8265 5H182.347C190.631 5 197.347 11.7157 197.347 20V61H5.82654V20C5.82654 11.7157 12.5423 5 20.8265 5Z" stroke="#5D440E" stroke-width="10"/>
<path d="M23.0682 2.94171H180.553C190.771 2.94171 199.053 11.2244 199.053 21.4417V63.0582H4.56824V21.4417C4.56824 11.2245 12.851 2.94171 23.0682 2.94171Z" stroke="#916E2C" stroke-width="3"/>
<path d="M144.183 27.5246V23.6296H132.013V27.5246H136.07V39.2095H132.013V43.1044H144.183V39.2095H140.126V27.5246H144.183Z" fill="black" fill-opacity="0.6"/>
<path d="M148.443 27.5246V39.2095C148.443 41.3605 150.26 43.1044 152.5 43.1044H156.557C158.797 43.1044 160.614 41.3605 160.614 39.2095V27.5246C160.614 25.3736 158.797 23.6296 156.557 23.6296H152.5C150.26 23.6296 148.443 25.3736 148.443 27.5246ZM156.557 39.2095H152.5V27.5246H156.557V39.2095Z" fill="black" fill-opacity="0.6"/>
<path d="M38.3 27.5246V23.6296H30.1863H26.1295V43.1044H38.3V39.2095H30.1863V35.3145H36.2715V31.4196H30.1863V27.5246H38.3Z" fill="black" fill-opacity="0.6"/>
<path d="M46.2108 23.6296V43.1044H52.2961C55.6572 43.1044 58.3813 40.489 58.3813 37.262V29.4721C58.3813 26.2451 55.6572 23.6296 52.2961 23.6296H46.2108ZM52.2961 39.2095H50.2676V27.5246H52.2961C53.4168 27.5246 54.3245 28.3961 54.3245 29.4721V37.262C54.3245 38.338 53.4168 39.2095 52.2961 39.2095Z" fill="black" fill-opacity="0.6"/>
<path d="M73.1887 23.6296V39.2095H69.1319V23.6296H65.0751V39.2095C65.0751 41.3605 66.8915 43.1044 69.1319 43.1044H73.1887C75.4291 43.1044 77.2456 41.3605 77.2456 39.2095V23.6296H73.1887Z" fill="black" fill-opacity="0.6"/>
<path d="M164.873 23.6296V43.1044H168.93V27.5246H172.987V43.1044H177.044V27.5246C177.044 25.3736 175.227 23.6296 172.987 23.6296H164.873Z" fill="black" fill-opacity="0.6"/>
<path d="M128.362 23.6296H116.191V27.5246H120.248V43.1044H124.305V27.5246H128.362V23.6296Z" fill="black" fill-opacity="0.6"/>
<path d="M82.7224 27.5246V39.2095C82.7224 41.3605 84.5389 43.1044 86.7792 43.1044H90.8361C93.0765 43.1044 94.8929 41.3605 94.8929 39.2095V36.2883H90.8361V39.2095H86.7792V27.5246H90.8361V30.4458H94.8929V27.5246C94.8929 25.3736 93.0765 23.6296 90.8361 23.6296H86.7792C84.5389 23.6296 82.7224 25.3736 82.7224 27.5246Z" fill="black" fill-opacity="0.6"/>
<path d="M107.266 23.6296H103.209C100.969 23.6296 99.1526 25.3736 99.1526 27.5246V43.1044H103.209V39.2095H107.266V43.1044H111.323V27.5246C111.323 25.3736 109.507 23.6296 107.266 23.6296ZM107.266 35.3145H103.209V27.5246H107.266V35.3145Z" fill="black" fill-opacity="0.6"/>
<defs>
<filter id="filter0_i_121_764" x="0.826538" y="0" width="201.52" height="70" filterUnits="userSpaceOnUse" color-interpolation-filters="sRGB">
<feFlood flood-opacity="0" result="BackgroundImageFix"/>
<feBlend mode="normal" in="SourceGraphic" in2="BackgroundImageFix" result="shape"/>
<feColorMatrix in="SourceAlpha" type="matrix" values="0 0 0 0 0 0 0 0 0 0 0 0 0 0 0 0 0 0 127 0" result="hardAlpha"/>
<feMorphology radius="10" operator="erode" in="SourceAlpha" result="effect1_innerShadow_121_764"/>
<feOffset dy="4"/>
<feGaussianBlur stdDeviation="4"/>
<feComposite in2="hardAlpha" operator="arithmetic" k2="-1" k3="1"/>
<feColorMatrix type="matrix" values="0 0 0 0 0.364706 0 0 0 0 0.266667 0 0 0 0 0.054902 0 0 0 1 0"/>
<feBlend mode="normal" in2="shape" result="effect1_innerShadow_121_764"/>
</filter>
</defs>
</svg>
