<svg width="205" height="66" viewBox="0 0 205 66" fill="none" xmlns="http://www.w3.org/2000/svg">
<g filter="url(#filter0_i_121_784)">
<path d="M0.768799 20C0.768799 8.95431 9.7231 0 20.7688 0H185C196.046 0 205 8.95431 205 20V66H0.768799V20Z" fill="#B48F4B"/>
</g>
<path d="M20.7688 5H185C193.284 5 200 11.7157 200 20V61H5.7688V20C5.7688 11.7157 12.4845 5 20.7688 5Z" stroke="#5D440E" stroke-width="10"/>
<path d="M23.0405 2.94171H183.183C193.4 2.94171 201.683 11.2244 201.683 21.4417V63.0582H4.54053V21.4417C4.54053 11.2245 12.8233 2.94171 23.0405 2.94171Z" stroke="#916E2C" stroke-width="3"/>
<path d="M60.9061 22.8148V43.5959H64.6879V35.2834H68.4698C70.5583 35.2834 72.2516 33.4225 72.2516 31.1272V26.971C72.2516 24.6758 70.5583 22.8148 68.4698 22.8148H60.9061ZM68.4698 31.1272H64.6879V26.971H68.4698V31.1272Z" fill="black" fill-opacity="0.6"/>
<path d="M119.903 26.971V22.8148H108.557V26.971H112.339V39.4397H108.557V43.5959H119.903V39.4397H116.121V26.971H119.903Z" fill="black" fill-opacity="0.6"/>
<path d="M36.5135 26.971V22.8148H28.9499H25.168V43.5959H36.5135V39.4397H28.9499V35.2834H34.6226V31.1272H28.9499V26.971H36.5135Z" fill="black" fill-opacity="0.6"/>
<path d="M88.7026 26.971V22.8148H81.1389H77.3571V43.5959H88.7026V39.4397H81.1389V35.2834H86.8117V31.1272H81.1389V26.971H88.7026Z" fill="black" fill-opacity="0.6"/>
<path d="M134.652 26.971V22.8148H127.088H123.306V43.5959H134.652V39.4397H127.088V35.2834H132.761V31.1272H127.088V26.971H134.652Z" fill="black" fill-opacity="0.6"/>
<path d="M180.601 26.971V22.8148H173.037H169.255V43.5959H180.601V39.4397H173.037V35.2834H178.71V31.1272H173.037V26.971H180.601Z" fill="black" fill-opacity="0.6"/>
<path d="M138.622 22.8148V43.5959H142.404V26.971H146.186V43.5959H149.968V26.971C149.968 24.6758 148.275 22.8148 146.186 22.8148H138.622Z" fill="black" fill-opacity="0.6"/>
<path d="M153.939 26.971V39.4397C153.939 41.7349 155.632 43.5959 157.721 43.5959H161.503C163.591 43.5959 165.284 41.7349 165.284 39.4397V36.3225H161.503V39.4397H157.721V26.971H161.503V30.0882H165.284V26.971C165.284 24.6758 163.591 22.8148 161.503 22.8148H157.721C155.632 22.8148 153.939 24.6758 153.939 26.971Z" fill="black" fill-opacity="0.6"/>
<path d="M54.6664 28.0101V22.8148H50.8846V28.0101C50.8846 28.6647 50.6047 29.2798 50.1282 29.6726L48.9936 30.6077L47.8591 29.6726C47.3826 29.2798 47.1027 28.6647 47.1027 28.0101V22.8148H43.3209V28.0101C43.3209 29.9729 44.1614 31.8203 45.59 32.9975L45.8424 33.2053L45.59 33.4132C44.1605 34.5904 43.3209 36.4378 43.3209 38.4006V43.5959H47.1027V38.4006C47.1027 37.746 47.3826 37.1309 47.8591 36.7381L48.9936 35.803L50.1282 36.7381C50.6047 37.1309 50.8846 37.746 50.8846 38.4006V43.5959H54.6664V38.4006C54.6664 36.4378 53.8259 34.5904 52.3973 33.4132L52.1448 33.2053L52.3973 32.9975C53.8259 31.8203 54.6664 29.9729 54.6664 28.0101Z" fill="black" fill-opacity="0.6"/>
<path fill-rule="evenodd" clip-rule="evenodd" d="M104.019 31.1272V26.971C104.019 24.6758 102.326 22.8148 100.237 22.8148H92.6735V43.5959H96.4553V35.2834H97.4007L100.237 39.4397V43.5959H104.019V39.4397L101.107 35.1729C102.776 34.741 104.019 33.0935 104.019 31.1272ZM100.237 26.971H96.4553V31.1272H100.237V26.971Z" fill="black" fill-opacity="0.6"/>
<defs>
<filter id="filter0_i_121_784" x="0.768799" y="0" width="204.231" height="70" filterUnits="userSpaceOnUse" color-interpolation-filters="sRGB">
<feFlood flood-opacity="0" result="BackgroundImageFix"/>
<feBlend mode="normal" in="SourceGraphic" in2="BackgroundImageFix" result="shape"/>
<feColorMatrix in="SourceAlpha" type="matrix" values="0 0 0 0 0 0 0 0 0 0 0 0 0 0 0 0 0 0 127 0" result="hardAlpha"/>
<feMorphology radius="10" operator="erode" in="SourceAlpha" result="effect1_innerShadow_121_784"/>
<feOffset dy="4"/>
<feGaussianBlur stdDeviation="4"/>
<feComposite in2="hardAlpha" operator="arithmetic" k2="-1" k3="1"/>
<feColorMatrix type="matrix" values="0 0 0 0 0.364706 0 0 0 0 0.266667 0 0 0 0 0.054902 0 0 0 1 0"/>
<feBlend mode="normal" in2="shape" result="effect1_innerShadow_121_784"/>
</filter>
</defs>
</svg>
