<svg width="1313" height="704" viewBox="0 0 1313 704" fill="none" xmlns="http://www.w3.org/2000/svg">
<mask id="path-1-inside-1_109_799" fill="white">
<path fill-rule="evenodd" clip-rule="evenodd" d="M70.1622 27.6236C64.3081 30.9486 58.9041 34.7672 53.9514 38.8464L70.1622 27.6236ZM47.7206 44.3208C41.1275 50.4859 35.4798 56.9833 30.7811 63.1082L47.7206 44.3208ZM14.8809 88.0079C14.851 88.066 14.8216 88.1235 14.7926 88.1801C14.6415 88.4756 14.6869 88.9021 15.0868 89.2013L16.6576 90.3768L14.8809 88.0079ZM18.2461 91.5655L18.6855 91.8943C18.8531 91.5459 19.0217 91.199 19.1912 90.8535C19.1429 90.8918 19.094 90.9295 19.0446 90.9666L18.2461 91.5655ZM20.1221 99.0421L19.4404 99.9532L11.492 94.0052C8.88728 92.0561 7.89312 88.4933 9.45083 85.4479C14.8453 74.9012 35.7868 37.8136 72.5045 19.5839C107.478 2.22035 140.559 0.869684 151.557 0.957011C155.404 0.987548 158.256 4.14799 158.256 7.80194V11.9383H158V16.9065C138.105 16.9065 55.323 22.0324 21.7042 99.7267L20.1221 99.0421ZM118.278 14.9306L125.888 14.0609C120.886 14.9986 115.556 16.2077 110.02 17.7638L118.065 14.9791C118.134 14.9552 118.206 14.9389 118.278 14.9306ZM28.6942 74.3829C27.9157 75.5402 27.1491 76.7184 26.3951 77.9181L27.4403 75.8277C27.4806 75.7471 27.5316 75.6723 27.592 75.6053L28.6942 74.3829ZM56.5053 44.3759C55.5627 45.1195 54.6253 45.8795 53.6936 46.6562L54.4166 45.8544C54.4683 45.797 54.5266 45.7458 54.5901 45.7018L56.5053 44.3759ZM90.773 24.4263C84.0589 27.222 77.2596 30.589 70.5651 34.6422L79.7571 28.2785C79.8318 28.2268 79.9133 28.1854 79.9992 28.1557L90.773 24.4263Z"/>
</mask>
<path fill-rule="evenodd" clip-rule="evenodd" d="M70.1622 27.6236C64.3081 30.9486 58.9041 34.7672 53.9514 38.8464L70.1622 27.6236ZM47.7206 44.3208C41.1275 50.4859 35.4798 56.9833 30.7811 63.1082L47.7206 44.3208ZM14.8809 88.0079C14.851 88.066 14.8216 88.1235 14.7926 88.1801C14.6415 88.4756 14.6869 88.9021 15.0868 89.2013L16.6576 90.3768L14.8809 88.0079ZM18.2461 91.5655L18.6855 91.8943C18.8531 91.5459 19.0217 91.199 19.1912 90.8535C19.1429 90.8918 19.094 90.9295 19.0446 90.9666L18.2461 91.5655ZM20.1221 99.0421L19.4404 99.9532L11.492 94.0052C8.88728 92.0561 7.89312 88.4933 9.45083 85.4479C14.8453 74.9012 35.7868 37.8136 72.5045 19.5839C107.478 2.22035 140.559 0.869684 151.557 0.957011C155.404 0.987548 158.256 4.14799 158.256 7.80194V11.9383H158V16.9065C138.105 16.9065 55.323 22.0324 21.7042 99.7267L20.1221 99.0421ZM118.278 14.9306L125.888 14.0609C120.886 14.9986 115.556 16.2077 110.02 17.7638L118.065 14.9791C118.134 14.9552 118.206 14.9389 118.278 14.9306ZM28.6942 74.3829C27.9157 75.5402 27.1491 76.7184 26.3951 77.9181L27.4403 75.8277C27.4806 75.7471 27.5316 75.6723 27.592 75.6053L28.6942 74.3829ZM56.5053 44.3759C55.5627 45.1195 54.6253 45.8795 53.6936 46.6562L54.4166 45.8544C54.4683 45.797 54.5266 45.7458 54.5901 45.7018L56.5053 44.3759ZM90.773 24.4263C84.0589 27.222 77.2596 30.589 70.5651 34.6422L79.7571 28.2785C79.8318 28.2268 79.9133 28.1854 79.9992 28.1557L90.773 24.4263Z" fill="#333E3D"/>
<path d="M70.1621 27.6236L70.7314 28.4458L69.6683 26.7541L70.1621 27.6236ZM53.9514 38.8464L53.3157 38.0745L54.5206 39.6686L53.9514 38.8464ZM47.7205 44.3208L48.4632 44.9905L47.0375 43.5904L47.7205 44.3208ZM30.7811 63.1082L29.9877 62.4995L31.5238 63.7778L30.7811 63.1082ZM14.8809 88.0079L15.6809 87.4079L14.7218 86.129L13.9914 87.551L14.8809 88.0079ZM14.7926 88.1801L15.6829 88.6355L15.6829 88.6355L14.7926 88.1801ZM15.0868 89.2013L14.4877 90.002L14.4877 90.002L15.0868 89.2013ZM16.6576 90.3768L16.0585 91.1775L17.4576 89.7768L16.6576 90.3768ZM18.2461 91.5655L17.6461 90.7655L16.5782 91.5664L17.6469 92.3661L18.2461 91.5655ZM18.6855 91.8943L18.0864 92.695L19.0596 93.4233L19.5866 92.3278L18.6855 91.8943ZM19.1912 90.8535L20.0889 91.2941L18.5703 90.0697L19.1912 90.8535ZM19.0446 90.9666L19.6446 91.7666L19.6446 91.7665L19.0446 90.9666ZM20.1221 99.0421L20.5193 98.1244L19.7946 97.8108L19.3215 98.443L20.1221 99.0421ZM19.4404 99.9532L18.8413 100.754L19.6419 101.353L20.241 100.552L19.4404 99.9532ZM11.492 94.0052L10.8928 94.8059L10.8928 94.8059L11.492 94.0052ZM9.45083 85.4479L8.56053 84.9925L8.56053 84.9925L9.45083 85.4479ZM72.5045 19.5839L72.0599 18.6882L72.0599 18.6882L72.5045 19.5839ZM151.557 0.957011L151.55 1.95698L151.55 1.95698L151.557 0.957011ZM158.256 11.9383V12.9383H159.256V11.9383H158.256ZM158 11.9383V10.9383H157V11.9383H158ZM158 16.9065L158 17.9065L159 17.9065V16.9065H158ZM21.7042 99.7267L21.307 100.644L22.2248 101.042L22.6219 100.124L21.7042 99.7267ZM125.888 14.0609L126.072 15.0438L125.774 13.0674L125.888 14.0609ZM118.278 14.9306L118.165 13.937L118.165 13.937L118.278 14.9306ZM110.02 17.7638L109.693 16.8188L110.291 18.7265L110.02 17.7638ZM118.065 14.9791L117.738 14.0341L117.738 14.0341L118.065 14.9791ZM26.395 77.9181L25.5006 77.4709L27.2417 78.4503L26.395 77.9181ZM28.6942 74.3829L29.5239 74.941L27.9515 73.7132L28.6942 74.3829ZM27.592 75.6053L28.3347 76.2749L28.3347 76.2749L27.592 75.6053ZM53.6936 46.6563L52.9509 45.9866L54.3339 47.4244L53.6936 46.6563ZM56.5053 44.3759L57.1247 45.161L55.9361 43.5537L56.5053 44.3759ZM54.4166 45.8544L53.6739 45.1847L53.6739 45.1847L54.4166 45.8544ZM54.5901 45.7018L54.0209 44.8796L54.0208 44.8796L54.5901 45.7018ZM70.565 34.6422L69.9958 33.82L71.083 35.4977L70.565 34.6422ZM90.7731 24.4263L91.1575 25.3494L90.446 23.4813L90.7731 24.4263ZM79.7571 28.2785L79.1879 27.4563L79.1879 27.4563L79.7571 28.2785ZM79.9992 28.1557L79.6721 27.2107L79.6721 27.2107L79.9992 28.1557ZM69.6683 26.7541C63.7583 30.1109 58.3072 33.9633 53.3157 38.0745L54.5872 39.6183C59.501 35.5711 64.8578 31.7865 70.656 28.4931L69.6683 26.7541ZM69.5929 26.8014L53.3822 38.0242L54.5206 39.6686L70.7314 28.4458L69.5929 26.8014ZM47.0375 43.5904C40.3974 49.7995 34.7134 56.3394 29.9877 62.4995L31.5745 63.7168C36.2463 57.6271 41.8577 51.1722 48.4035 45.0513L47.0375 43.5904ZM46.9778 43.6512L30.0384 62.4385L31.5238 63.7778L48.4632 44.9905L46.9778 43.6512ZM13.9914 87.551C13.9613 87.6096 13.9316 87.6676 13.9023 87.7248L15.6829 88.6355C15.7117 88.5793 15.7408 88.5224 15.7704 88.4648L13.9914 87.551ZM13.9023 87.7247C13.5273 88.4581 13.7014 89.4136 14.4877 90.002L15.6859 88.4007C15.6707 88.3893 15.6729 88.3874 15.6814 88.4001C15.6899 88.4128 15.7002 88.4334 15.7066 88.4609C15.7192 88.5145 15.7134 88.576 15.6829 88.6355L13.9023 87.7247ZM14.4877 90.002L16.0585 91.1775L17.2567 89.5762L15.6859 88.4007L14.4877 90.002ZM14.0809 88.6079L15.8576 90.9768L17.4576 89.7768L15.6809 87.4079L14.0809 88.6079ZM17.6469 92.3661L18.0864 92.695L19.2846 91.0937L18.8452 90.7648L17.6469 92.3661ZM18.2935 90.4129C18.1228 90.7607 17.9531 91.11 17.7843 91.4608L19.5866 92.3278C19.7531 91.9818 19.9206 91.6372 20.0889 91.2941L18.2935 90.4129ZM19.6446 91.7665C19.7011 91.7242 19.7569 91.6812 19.8122 91.6374L18.5703 90.0697C18.5289 90.1025 18.487 90.1348 18.4446 90.1666L19.6446 91.7665ZM18.8461 92.3655L19.6446 91.7666L18.4446 90.1666L17.6461 90.7655L18.8461 92.3655ZM19.3215 98.443L18.6397 99.354L20.241 100.552L20.9228 99.6413L19.3215 98.443ZM20.0395 99.1525L12.0911 93.2046L10.8928 94.8059L18.8413 100.754L20.0395 99.1525ZM12.0911 93.2046C9.85162 91.5287 9.01909 88.488 10.3411 85.9032L8.56053 84.9925C6.76716 88.4987 7.92294 92.5834 10.8928 94.8059L12.0911 93.2046ZM10.3411 85.9032C15.7174 75.3921 36.5359 38.5582 72.9492 20.4796L72.0599 18.6882C35.0377 37.0691 13.9731 74.4104 8.56053 84.9925L10.3411 85.9032ZM72.9492 20.4796C107.727 3.21318 140.632 1.8703 151.55 1.95698L151.565 -0.0429573C140.486 -0.130928 107.229 1.22751 72.0599 18.6882L72.9492 20.4796ZM151.55 1.95698C154.811 1.98287 157.256 4.66057 157.256 7.80194H159.256C159.256 3.63542 155.997 -0.00777474 151.565 -0.0429573L151.55 1.95698ZM157.256 7.80194V11.9383H159.256V7.80194H157.256ZM158.256 10.9383H158V12.9383H158.256V10.9383ZM159 16.9065V11.9383H157V16.9065H159ZM22.6219 100.124C55.976 23.0414 138.139 17.9065 158 17.9065L158 15.9065C138.07 15.9065 54.67 21.0234 20.7864 99.3296L22.6219 100.124ZM19.725 99.9599L21.307 100.644L22.1013 98.8089L20.5193 98.1244L19.725 99.9599ZM125.774 13.0674L118.165 13.937L118.392 15.9241L126.001 15.0545L125.774 13.0674ZM110.291 18.7265C115.795 17.1791 121.097 15.9766 126.072 15.0438L125.703 13.0781C120.676 14.0207 115.316 15.2364 109.75 16.8011L110.291 18.7265ZM117.738 14.0341L109.693 16.8188L110.347 18.7088L118.392 15.9241L117.738 14.0341ZM118.165 13.937C118.019 13.9537 117.876 13.9862 117.738 14.0341L118.392 15.9241L118.392 15.9241L118.165 13.937ZM27.2417 78.4503C27.9902 77.2594 28.7512 76.0897 29.5239 74.941L27.8644 73.8247C27.0802 74.9906 26.308 76.1775 25.5484 77.386L27.2417 78.4503ZM26.5458 75.3805L25.5006 77.4709L27.2895 78.3654L28.3347 76.2749L26.5458 75.3805ZM26.8493 74.9357C26.7285 75.0696 26.6265 75.2192 26.5458 75.3805L28.3347 76.2749L28.3347 76.2749L26.8493 74.9357ZM27.9515 73.7132L26.8493 74.9357L28.3347 76.2749L29.4369 75.0525L27.9515 73.7132ZM54.3339 47.4244C55.2587 46.6534 56.1891 45.899 57.1247 45.161L55.886 43.5908C54.9364 44.3399 53.9919 45.1056 53.0532 45.8882L54.3339 47.4244ZM53.6739 45.1847L52.9509 45.9866L54.4362 47.3259L55.1593 46.524L53.6739 45.1847ZM54.0208 44.8796C53.8938 44.9676 53.7774 45.07 53.6739 45.1847L55.1592 46.524L55.1593 46.524L54.0208 44.8796ZM55.9361 43.5537L54.0209 44.8796L55.1593 46.524L57.0746 45.1981L55.9361 43.5537ZM71.083 35.4977C77.7308 31.4727 84.485 28.1278 91.1575 25.3494L90.3887 23.5031C83.6328 26.3162 76.7883 29.7053 70.0471 33.7868L71.083 35.4977ZM79.1879 27.4563L69.9958 33.82L71.1342 35.4644L80.3263 29.1007L79.1879 27.4563ZM79.6721 27.2107C79.5003 27.2702 79.3374 27.3528 79.1879 27.4563L80.3263 29.1007L80.3263 29.1007L79.6721 27.2107ZM90.446 23.4813L79.6721 27.2107L80.3263 29.1007L91.1002 25.3713L90.446 23.4813Z" fill="#333E3D" mask="url(#path-1-inside-1_109_799)"/>
<mask id="path-3-inside-2_109_799" fill="white">
<path fill-rule="evenodd" clip-rule="evenodd" d="M1292.82 99.9998L1292.13 99.0888L1290.55 99.7733C1256.93 22.079 1174.15 16.9531 1154.26 16.9531V11.9849H1154V7.84857C1154 4.19462 1156.85 1.03418 1160.7 1.00364C1171.7 0.916315 1204.78 2.26698 1239.75 19.6305C1276.47 37.8603 1297.41 74.9479 1302.8 85.4945C1304.36 88.54 1303.37 92.1027 1300.76 94.0518L1292.82 99.9998Z"/>
</mask>
<path fill-rule="evenodd" clip-rule="evenodd" d="M1292.82 99.9998L1292.13 99.0888L1290.55 99.7733C1256.93 22.079 1174.15 16.9531 1154.26 16.9531V11.9849H1154V7.84857C1154 4.19462 1156.85 1.03418 1160.7 1.00364C1171.7 0.916315 1204.78 2.26698 1239.75 19.6305C1276.47 37.8603 1297.41 74.9479 1302.8 85.4945C1304.36 88.54 1303.37 92.1027 1300.76 94.0518L1292.82 99.9998Z" fill="#333E3D"/>
<path d="M1292.13 99.0888L1291.74 98.171L1292.46 97.8575L1292.93 98.4897L1292.13 99.0888ZM1292.82 99.9998L1293.41 100.8L1292.61 101.4L1292.01 100.599L1292.82 99.9998ZM1290.55 99.7733L1290.95 100.691L1290.03 101.088L1289.63 100.17L1290.55 99.7733ZM1154.26 16.9531L1154.26 17.9531L1153.26 17.9531V16.9531H1154.26ZM1154.26 11.9849V10.9849H1155.26V11.9849H1154.26ZM1154 11.9849V12.9849H1153V11.9849H1154ZM1160.7 1.00364L1160.71 2.00361L1160.71 2.00361L1160.7 1.00364ZM1239.75 19.6305L1239.31 20.5262L1239.75 19.6305ZM1302.8 85.4945L1303.7 85.0391L1303.7 85.0391L1302.8 85.4945ZM1300.76 94.0518L1301.36 94.8525L1301.36 94.8525L1300.76 94.0518ZM1292.93 98.4897L1293.62 99.4007L1292.01 100.599L1291.33 99.6879L1292.93 98.4897ZM1290.15 98.8556L1291.74 98.171L1292.53 100.007L1290.95 100.691L1290.15 98.8556ZM1154.26 15.9531C1174.19 15.9531 1257.59 21.07 1291.47 99.3762L1289.63 100.17C1256.28 23.088 1174.12 17.9531 1154.26 17.9531L1154.26 15.9531ZM1155.26 11.9849V16.9531H1153.26V11.9849H1155.26ZM1154 10.9849H1154.26V12.9849H1154V10.9849ZM1155 7.84857V11.9849H1153V7.84857H1155ZM1160.71 2.00361C1157.45 2.0295 1155 4.7072 1155 7.84857H1153C1153 3.68205 1156.26 0.0388561 1160.69 0.0036736L1160.71 2.00361ZM1239.31 20.5262C1204.53 3.25981 1171.62 1.91693 1160.71 2.00361L1160.69 0.0036736C1171.77 -0.0842968 1205.03 1.27415 1240.2 18.7349L1239.31 20.5262ZM1301.91 85.9499C1296.54 75.4387 1275.72 38.6048 1239.31 20.5262L1240.2 18.7349C1277.22 37.1157 1298.28 74.457 1303.7 85.0391L1301.91 85.9499ZM1300.16 93.2512C1302.4 91.5753 1303.24 88.5346 1301.91 85.9499L1303.7 85.0391C1305.49 88.5454 1304.33 92.6301 1301.36 94.8525L1300.16 93.2512ZM1292.22 99.1992L1300.16 93.2512L1301.36 94.8525L1293.41 100.8L1292.22 99.1992Z" fill="#333E3D" mask="url(#path-3-inside-2_109_799)"/>
<path d="M20 92.5L17.706 90.4145C15.9783 88.8439 15.9575 86.1336 17.6609 84.5366L28.3945 74.4739C29.6516 73.2954 30.0127 71.4441 29.2906 69.8795L28.6264 68.4405C27.9452 66.9646 28.2249 65.2233 29.334 64.035L47.2744 44.8131C48.0059 44.0294 49.1576 43.8035 50.1309 44.2527V44.2527C52.0519 45.1393 54.131 43.3715 53.5647 41.3329L53.1959 40.0053C52.7927 38.5539 53.4835 37.0215 54.8381 36.3625L67.8167 30.0486C69.1797 29.3855 70.7325 30.5065 70.5321 32.009V32.009C70.3199 33.601 72.0555 34.7223 73.4195 33.8743L88.0219 24.7972C88.3391 24.6 88.6823 24.4483 89.0416 24.3463L125.5 14L131.173 13.0544C131.391 13.0182 131.611 13 131.831 13H141" stroke="#333E3D" stroke-width="10"/>
<g filter="url(#filter0_d_109_799)">
<mask id="path-6-inside-3_109_799" fill="white">
<path fill-rule="evenodd" clip-rule="evenodd" d="M154 16C71.1573 16 4 83.1573 4 166V546C4 628.843 71.1573 696 154 696H1159C1241.84 696 1309 628.843 1309 546V166C1309 83.1573 1241.84 16 1159 16H154ZM1048 106H263V606H1048V106Z"/>
</mask>
<path fill-rule="evenodd" clip-rule="evenodd" d="M154 16C71.1573 16 4 83.1573 4 166V546C4 628.843 71.1573 696 154 696H1159C1241.84 696 1309 628.843 1309 546V166C1309 83.1573 1241.84 16 1159 16H154ZM1048 106H263V606H1048V106Z" fill="#60855C"/>
<path d="M263 106V91H248V106H263ZM1048 106H1063V91H1048V106ZM263 606H248V621H263V606ZM1048 606V621H1063V606H1048ZM19 166C19 91.4415 79.4416 31 154 31V1C62.873 1 -11 74.873 -11 166H19ZM19 546V166H-11V546H19ZM154 681C79.4416 681 19 620.558 19 546H-11C-11 637.127 62.8731 711 154 711V681ZM1159 681H154V711H1159V681ZM1294 546C1294 620.558 1233.56 681 1159 681V711C1250.13 711 1324 637.127 1324 546H1294ZM1294 166V546H1324V166H1294ZM1159 31C1233.56 31 1294 91.4416 1294 166H1324C1324 74.873 1250.13 1 1159 1V31ZM154 31H1159V1H154V31ZM263 121H1048V91H263V121ZM278 606V106H248V606H278ZM1048 591H263V621H1048V591ZM1033 106V606H1063V106H1033Z" fill="#333E3D" mask="url(#path-6-inside-3_109_799)"/>
</g>
<mask id="path-8-inside-4_109_799" fill="white">
<path fill-rule="evenodd" clip-rule="evenodd" d="M263 61C238.147 61 218 81.1472 218 106V606C218 630.853 238.147 651 263 651H1051C1075.85 651 1096 630.853 1096 606V106C1096 81.1472 1075.85 61 1051 61H263ZM1048 106H263V606H1048V106Z"/>
</mask>
<path fill-rule="evenodd" clip-rule="evenodd" d="M263 61C238.147 61 218 81.1472 218 106V606C218 630.853 238.147 651 263 651H1051C1075.85 651 1096 630.853 1096 606V106C1096 81.1472 1075.85 61 1051 61H263ZM1048 106H263V606H1048V106Z" fill="#2B5726"/>
<path d="M263 106V96H253V106H263ZM1048 106H1058V96H1048V106ZM263 606H253V616H263V606ZM1048 606V616H1058V606H1048ZM228 106C228 86.67 243.67 71 263 71V51C232.624 51 208 75.6243 208 106H228ZM228 606V106H208V606H228ZM263 641C243.67 641 228 625.33 228 606H208C208 636.376 232.624 661 263 661V641ZM1051 641H263V661H1051V641ZM1086 606C1086 625.33 1070.33 641 1051 641V661C1081.38 661 1106 636.376 1106 606H1086ZM1086 106V606H1106V106H1086ZM1051 71C1070.33 71 1086 86.67 1086 106H1106C1106 75.6243 1081.38 51 1051 51V71ZM263 71H1051V51H263V71ZM263 116H1048V96H263V116ZM273 606V106H253V606H273ZM1048 596H263V616H1048V596ZM1038 106V606H1058V106H1038Z" fill="#333E3D" mask="url(#path-8-inside-4_109_799)"/>
<g filter="url(#filter1_i_109_799)">
<rect x="24" y="35" width="1267" height="641" rx="137" stroke="#333E3D" stroke-opacity="0.2" stroke-width="10"/>
</g>
<g filter="url(#filter2_d_109_799)">
<ellipse cx="1193.5" cy="460" rx="52.5" ry="50" fill="#DCFFD8"/>
<path d="M1193.5 513.5C1224.27 513.5 1249.5 489.706 1249.5 460C1249.5 430.294 1224.27 406.5 1193.5 406.5C1162.74 406.5 1137.5 430.294 1137.5 460C1137.5 489.706 1162.74 513.5 1193.5 513.5Z" stroke="#435150" stroke-width="7"/>
</g>
<g filter="url(#filter3_di_109_799)">
<ellipse cx="1193.62" cy="459.5" rx="44.625" ry="42.5" fill="#DCFFD8"/>
<path d="M1234.75 459.5C1234.75 480.88 1216.5 498.5 1193.62 498.5C1170.75 498.5 1152.5 480.88 1152.5 459.5C1152.5 438.12 1170.75 420.5 1193.62 420.5C1216.5 420.5 1234.75 438.12 1234.75 459.5Z" stroke="#435150" stroke-width="7"/>
</g>
<g filter="url(#filter4_d_109_799)">
<ellipse cx="123.5" cy="237" rx="52.5" ry="50" fill="#DCFFD8"/>
<path d="M123.5 290.5C154.265 290.5 179.5 266.706 179.5 237C179.5 207.294 154.265 183.5 123.5 183.5C92.7349 183.5 67.5 207.294 67.5 237C67.5 266.706 92.7349 290.5 123.5 290.5Z" stroke="#435150" stroke-width="7"/>
</g>
<g filter="url(#filter5_di_109_799)">
<ellipse cx="123.625" cy="236.5" rx="44.625" ry="42.5" fill="#DCFFD8"/>
<path d="M164.75 236.5C164.75 257.88 146.501 275.5 123.625 275.5C100.749 275.5 82.5 257.88 82.5 236.5C82.5 215.12 100.749 197.5 123.625 197.5C146.501 197.5 164.75 215.12 164.75 236.5Z" stroke="#435150" stroke-width="7"/>
</g>
<circle cx="1136.5" cy="562.5" r="21" fill="#DCFFD8" stroke="#435150" stroke-width="7"/>
<g filter="url(#filter6_d_109_799)">
<rect x="148" y="89" width="47" height="24" rx="5" fill="#DCFFD8"/>
<rect x="150.5" y="91.5" width="42" height="19" rx="2.5" stroke="#333E3D" stroke-width="5"/>
</g>
<g filter="url(#filter7_d_109_799)">
<rect x="162" y="545" width="35" height="35" rx="5" fill="#DCFFD8"/>
<rect x="159.5" y="542.5" width="40" height="40" rx="7.5" stroke="#333E3D" stroke-width="5"/>
</g>
<g filter="url(#filter8_d_109_799)">
<mask id="path-24-inside-5_109_799" fill="white">
<path fill-rule="evenodd" clip-rule="evenodd" d="M1136 89C1133.24 89 1131 91.2386 1131 94V101H1124C1121.24 101 1119 103.239 1119 106V120C1119 122.761 1121.24 125 1124 125H1131V131C1131 133.761 1133.24 136 1136 136H1150C1152.76 136 1155 133.761 1155 131V125H1161C1163.76 125 1166 122.761 1166 120V106C1166 103.239 1163.76 101 1161 101H1155V94C1155 91.2386 1152.76 89 1150 89H1136Z"/>
</mask>
<path fill-rule="evenodd" clip-rule="evenodd" d="M1136 89C1133.24 89 1131 91.2386 1131 94V101H1124C1121.24 101 1119 103.239 1119 106V120C1119 122.761 1121.24 125 1124 125H1131V131C1131 133.761 1133.24 136 1136 136H1150C1152.76 136 1155 133.761 1155 131V125H1161C1163.76 125 1166 122.761 1166 120V106C1166 103.239 1163.76 101 1161 101H1155V94C1155 91.2386 1152.76 89 1150 89H1136Z" fill="#DCFFD8"/>
<path d="M1131 101V106H1136V101H1131ZM1131 125H1136V120H1131V125ZM1155 125V120H1150V125H1155ZM1155 101H1150V106H1155V101ZM1136 94V94V84C1130.48 84 1126 88.4772 1126 94H1136ZM1136 101V94H1126V101H1136ZM1124 106H1131V96H1124V106ZM1124 106V96C1118.48 96 1114 100.477 1114 106H1124ZM1124 120V106H1114V120H1124ZM1124 120H1124H1114C1114 125.523 1118.48 130 1124 130V120ZM1131 120H1124V130H1131V120ZM1136 131V125H1126V131H1136ZM1136 131H1126C1126 136.523 1130.48 141 1136 141V131ZM1150 131H1136V141H1150V131ZM1150 131V141C1155.52 141 1160 136.523 1160 131H1150ZM1150 125V131H1160V125H1150ZM1161 120H1155V130H1161V120ZM1161 120V130C1166.52 130 1171 125.523 1171 120H1161ZM1161 106V120H1171V106H1161ZM1161 106H1171C1171 100.477 1166.52 96 1161 96V106ZM1155 106H1161V96H1155V106ZM1150 94V101H1160V94H1150ZM1150 94H1160C1160 88.4772 1155.52 84 1150 84V94ZM1136 94H1150V84H1136V94Z" fill="#333E3D" mask="url(#path-24-inside-5_109_799)"/>
</g>
<g filter="url(#filter9_d_109_799)">
<circle cx="1195" cy="294" r="25" fill="#DCFFD8"/>
<circle cx="1195" cy="294" r="21.5" stroke="#435150" stroke-width="7"/>
</g>
<g filter="url(#filter10_i_109_799)">
<rect x="1190.24" y="284.476" width="9.52381" height="19.0476" rx="4" fill="#B7E1B2"/>
</g>
<g filter="url(#filter11_d_109_799)">
<circle cx="1196" cy="193" r="25" fill="#DCFFD8"/>
<circle cx="1196" cy="193" r="21.5" stroke="#435150" stroke-width="7"/>
</g>
<g filter="url(#filter12_i_109_799)">
<rect x="1191.24" y="183.476" width="9.52381" height="19.0476" rx="4" fill="#B7E1B2"/>
</g>
<g filter="url(#filter13_d_109_799)">
<circle cx="1145" cy="243" r="25" fill="#DCFFD8"/>
<circle cx="1145" cy="243" r="21.5" stroke="#435150" stroke-width="7"/>
</g>
<g filter="url(#filter14_i_109_799)">
<rect x="1140.24" y="233.476" width="9.52381" height="19.0476" rx="4" fill="#B7E1B2"/>
</g>
<g filter="url(#filter15_d_109_799)">
<circle cx="1243" cy="243" r="25" fill="#DCFFD8"/>
<circle cx="1243" cy="243" r="21.5" stroke="#435150" stroke-width="7"/>
</g>
<g filter="url(#filter16_i_109_799)">
<rect x="1238.24" y="233.476" width="9.52381" height="19.0476" rx="4" fill="#B7E1B2"/>
</g>
<g filter="url(#filter17_d_109_799)">
<path fill-rule="evenodd" clip-rule="evenodd" d="M117 410C111.477 410 107 414.477 107 420V443H84C78.4772 443 74 447.477 74 453V467C74 472.523 78.4772 477 84 477H107V500C107 505.523 111.477 510 117 510H131C136.523 510 141 505.523 141 500V477H164C169.523 477 174 472.523 174 467V453C174 447.477 169.523 443 164 443H141V420C141 414.477 136.523 410 131 410H117Z" fill="#DCFFD8"/>
<path d="M107 443V446.5H110.5V443H107ZM107 477H110.5V473.5H107V477ZM141 477V473.5H137.5V477H141ZM141 443H137.5V446.5H141V443ZM110.5 420C110.5 416.41 113.41 413.5 117 413.5V406.5C109.544 406.5 103.5 412.544 103.5 420H110.5ZM110.5 443V420H103.5V443H110.5ZM84 446.5H107V439.5H84V446.5ZM77.5 453C77.5 449.41 80.4101 446.5 84 446.5V439.5C76.5442 439.5 70.5 445.544 70.5 453H77.5ZM77.5 467V453H70.5V467H77.5ZM84 473.5C80.4102 473.5 77.5 470.59 77.5 467H70.5C70.5 474.456 76.5442 480.5 84 480.5V473.5ZM107 473.5H84V480.5H107V473.5ZM110.5 500V477H103.5V500H110.5ZM117 506.5C113.41 506.5 110.5 503.59 110.5 500H103.5C103.5 507.456 109.544 513.5 117 513.5V506.5ZM131 506.5H117V513.5H131V506.5ZM137.5 500C137.5 503.59 134.59 506.5 131 506.5V513.5C138.456 513.5 144.5 507.456 144.5 500H137.5ZM137.5 477V500H144.5V477H137.5ZM164 473.5H141V480.5H164V473.5ZM170.5 467C170.5 470.59 167.59 473.5 164 473.5V480.5C171.456 480.5 177.5 474.456 177.5 467H170.5ZM170.5 453V467H177.5V453H170.5ZM164 446.5C167.59 446.5 170.5 449.41 170.5 453H177.5C177.5 445.544 171.456 439.5 164 439.5V446.5ZM141 446.5H164V439.5H141V446.5ZM137.5 420V443H144.5V420H137.5ZM131 413.5C134.59 413.5 137.5 416.41 137.5 420H144.5C144.5 412.544 138.456 406.5 131 406.5V413.5ZM117 413.5H131V406.5H117V413.5Z" fill="#333E3D"/>
</g>
<path d="M124 419L132.66 434H115.34L124 419Z" fill="#D9D9D9"/>
<path d="M124 503L115.34 488H132.66L124 503Z" fill="#D9D9D9"/>
<path d="M84 460L99 451.34V468.66L84 460Z" fill="#D9D9D9"/>
<path d="M162 460L147 468.66V451.34L162 460Z" fill="#D9D9D9"/>
<defs>
<filter id="filter0_d_109_799" x="0" y="16" width="1313" height="688" filterUnits="userSpaceOnUse" color-interpolation-filters="sRGB">
<feFlood flood-opacity="0" result="BackgroundImageFix"/>
<feColorMatrix in="SourceAlpha" type="matrix" values="0 0 0 0 0 0 0 0 0 0 0 0 0 0 0 0 0 0 127 0" result="hardAlpha"/>
<feOffset dy="4"/>
<feGaussianBlur stdDeviation="2"/>
<feComposite in2="hardAlpha" operator="out"/>
<feColorMatrix type="matrix" values="0 0 0 0 0 0 0 0 0 0 0 0 0 0 0 0 0 0 0.25 0"/>
<feBlend mode="normal" in2="BackgroundImageFix" result="effect1_dropShadow_109_799"/>
<feBlend mode="normal" in="SourceGraphic" in2="effect1_dropShadow_109_799" result="shape"/>
</filter>
<filter id="filter1_i_109_799" x="19" y="30" width="1277" height="651" filterUnits="userSpaceOnUse" color-interpolation-filters="sRGB">
<feFlood flood-opacity="0" result="BackgroundImageFix"/>
<feBlend mode="normal" in="SourceGraphic" in2="BackgroundImageFix" result="shape"/>
<feColorMatrix in="SourceAlpha" type="matrix" values="0 0 0 0 0 0 0 0 0 0 0 0 0 0 0 0 0 0 127 0" result="hardAlpha"/>
<feMorphology radius="25" operator="erode" in="SourceAlpha" result="effect1_innerShadow_109_799"/>
<feOffset/>
<feGaussianBlur stdDeviation="25"/>
<feComposite in2="hardAlpha" operator="arithmetic" k2="-1" k3="1"/>
<feColorMatrix type="matrix" values="0 0 0 0 0.59074 0 0 0 0 0.691667 0 0 0 0 0.579271 0 0 0 0.58 0"/>
<feBlend mode="normal" in2="shape" result="effect1_innerShadow_109_799"/>
</filter>
<filter id="filter2_d_109_799" x="1128" y="401" width="131" height="126" filterUnits="userSpaceOnUse" color-interpolation-filters="sRGB">
<feFlood flood-opacity="0" result="BackgroundImageFix"/>
<feColorMatrix in="SourceAlpha" type="matrix" values="0 0 0 0 0 0 0 0 0 0 0 0 0 0 0 0 0 0 127 0" result="hardAlpha"/>
<feMorphology radius="2" operator="dilate" in="SourceAlpha" result="effect1_dropShadow_109_799"/>
<feOffset dy="4"/>
<feGaussianBlur stdDeviation="2"/>
<feComposite in2="hardAlpha" operator="out"/>
<feColorMatrix type="matrix" values="0 0 0 0 0 0 0 0 0 0 0 0 0 0 0 0 0 0 0.25 0"/>
<feBlend mode="normal" in2="BackgroundImageFix" result="effect1_dropShadow_109_799"/>
<feBlend mode="normal" in="SourceGraphic" in2="effect1_dropShadow_109_799" result="shape"/>
</filter>
<filter id="filter3_di_109_799" x="1145" y="417" width="97.25" height="93" filterUnits="userSpaceOnUse" color-interpolation-filters="sRGB">
<feFlood flood-opacity="0" result="BackgroundImageFix"/>
<feColorMatrix in="SourceAlpha" type="matrix" values="0 0 0 0 0 0 0 0 0 0 0 0 0 0 0 0 0 0 127 0" result="hardAlpha"/>
<feOffset dy="4"/>
<feGaussianBlur stdDeviation="2"/>
<feComposite in2="hardAlpha" operator="out"/>
<feColorMatrix type="matrix" values="0 0 0 0 0 0 0 0 0 0 0 0 0 0 0 0 0 0 0.25 0"/>
<feBlend mode="normal" in2="BackgroundImageFix" result="effect1_dropShadow_109_799"/>
<feBlend mode="normal" in="SourceGraphic" in2="effect1_dropShadow_109_799" result="shape"/>
<feColorMatrix in="SourceAlpha" type="matrix" values="0 0 0 0 0 0 0 0 0 0 0 0 0 0 0 0 0 0 127 0" result="hardAlpha"/>
<feMorphology radius="20" operator="erode" in="SourceAlpha" result="effect2_innerShadow_109_799"/>
<feOffset dy="8"/>
<feGaussianBlur stdDeviation="10"/>
<feComposite in2="hardAlpha" operator="arithmetic" k2="-1" k3="1"/>
<feColorMatrix type="matrix" values="0 0 0 0 0.718084 0 0 0 0 0.883333 0 0 0 0 0.699306 0 0 0 1 0"/>
<feBlend mode="normal" in2="shape" result="effect2_innerShadow_109_799"/>
</filter>
<filter id="filter4_d_109_799" x="58" y="178" width="131" height="126" filterUnits="userSpaceOnUse" color-interpolation-filters="sRGB">
<feFlood flood-opacity="0" result="BackgroundImageFix"/>
<feColorMatrix in="SourceAlpha" type="matrix" values="0 0 0 0 0 0 0 0 0 0 0 0 0 0 0 0 0 0 127 0" result="hardAlpha"/>
<feMorphology radius="2" operator="dilate" in="SourceAlpha" result="effect1_dropShadow_109_799"/>
<feOffset dy="4"/>
<feGaussianBlur stdDeviation="2"/>
<feComposite in2="hardAlpha" operator="out"/>
<feColorMatrix type="matrix" values="0 0 0 0 0 0 0 0 0 0 0 0 0 0 0 0 0 0 0.25 0"/>
<feBlend mode="normal" in2="BackgroundImageFix" result="effect1_dropShadow_109_799"/>
<feBlend mode="normal" in="SourceGraphic" in2="effect1_dropShadow_109_799" result="shape"/>
</filter>
<filter id="filter5_di_109_799" x="75" y="194" width="97.25" height="93" filterUnits="userSpaceOnUse" color-interpolation-filters="sRGB">
<feFlood flood-opacity="0" result="BackgroundImageFix"/>
<feColorMatrix in="SourceAlpha" type="matrix" values="0 0 0 0 0 0 0 0 0 0 0 0 0 0 0 0 0 0 127 0" result="hardAlpha"/>
<feOffset dy="4"/>
<feGaussianBlur stdDeviation="2"/>
<feComposite in2="hardAlpha" operator="out"/>
<feColorMatrix type="matrix" values="0 0 0 0 0 0 0 0 0 0 0 0 0 0 0 0 0 0 0.25 0"/>
<feBlend mode="normal" in2="BackgroundImageFix" result="effect1_dropShadow_109_799"/>
<feBlend mode="normal" in="SourceGraphic" in2="effect1_dropShadow_109_799" result="shape"/>
<feColorMatrix in="SourceAlpha" type="matrix" values="0 0 0 0 0 0 0 0 0 0 0 0 0 0 0 0 0 0 127 0" result="hardAlpha"/>
<feMorphology radius="20" operator="erode" in="SourceAlpha" result="effect2_innerShadow_109_799"/>
<feOffset dy="8"/>
<feGaussianBlur stdDeviation="10"/>
<feComposite in2="hardAlpha" operator="arithmetic" k2="-1" k3="1"/>
<feColorMatrix type="matrix" values="0 0 0 0 0.718084 0 0 0 0 0.883333 0 0 0 0 0.699306 0 0 0 1 0"/>
<feBlend mode="normal" in2="shape" result="effect2_innerShadow_109_799"/>
</filter>
<filter id="filter6_d_109_799" x="144" y="89" width="55" height="32" filterUnits="userSpaceOnUse" color-interpolation-filters="sRGB">
<feFlood flood-opacity="0" result="BackgroundImageFix"/>
<feColorMatrix in="SourceAlpha" type="matrix" values="0 0 0 0 0 0 0 0 0 0 0 0 0 0 0 0 0 0 127 0" result="hardAlpha"/>
<feOffset dy="4"/>
<feGaussianBlur stdDeviation="2"/>
<feComposite in2="hardAlpha" operator="out"/>
<feColorMatrix type="matrix" values="0 0 0 0 0 0 0 0 0 0 0 0 0 0 0 0 0 0 0.25 0"/>
<feBlend mode="normal" in2="BackgroundImageFix" result="effect1_dropShadow_109_799"/>
<feBlend mode="normal" in="SourceGraphic" in2="effect1_dropShadow_109_799" result="shape"/>
</filter>
<filter id="filter7_d_109_799" x="153" y="540" width="53" height="53" filterUnits="userSpaceOnUse" color-interpolation-filters="sRGB">
<feFlood flood-opacity="0" result="BackgroundImageFix"/>
<feColorMatrix in="SourceAlpha" type="matrix" values="0 0 0 0 0 0 0 0 0 0 0 0 0 0 0 0 0 0 127 0" result="hardAlpha"/>
<feOffset dy="4"/>
<feGaussianBlur stdDeviation="2"/>
<feComposite in2="hardAlpha" operator="out"/>
<feColorMatrix type="matrix" values="0 0 0 0 0 0 0 0 0 0 0 0 0 0 0 0 0 0 0.25 0"/>
<feBlend mode="normal" in2="BackgroundImageFix" result="effect1_dropShadow_109_799"/>
<feBlend mode="normal" in="SourceGraphic" in2="effect1_dropShadow_109_799" result="shape"/>
</filter>
<filter id="filter8_d_109_799" x="1115" y="89" width="54.9999" height="55" filterUnits="userSpaceOnUse" color-interpolation-filters="sRGB">
<feFlood flood-opacity="0" result="BackgroundImageFix"/>
<feColorMatrix in="SourceAlpha" type="matrix" values="0 0 0 0 0 0 0 0 0 0 0 0 0 0 0 0 0 0 127 0" result="hardAlpha"/>
<feOffset dy="4"/>
<feGaussianBlur stdDeviation="2"/>
<feComposite in2="hardAlpha" operator="out"/>
<feColorMatrix type="matrix" values="0 0 0 0 0 0 0 0 0 0 0 0 0 0 0 0 0 0 0.25 0"/>
<feBlend mode="normal" in2="BackgroundImageFix" result="effect1_dropShadow_109_799"/>
<feBlend mode="normal" in="SourceGraphic" in2="effect1_dropShadow_109_799" result="shape"/>
</filter>
<filter id="filter9_d_109_799" x="1166" y="269" width="58" height="58" filterUnits="userSpaceOnUse" color-interpolation-filters="sRGB">
<feFlood flood-opacity="0" result="BackgroundImageFix"/>
<feColorMatrix in="SourceAlpha" type="matrix" values="0 0 0 0 0 0 0 0 0 0 0 0 0 0 0 0 0 0 127 0" result="hardAlpha"/>
<feOffset dy="4"/>
<feGaussianBlur stdDeviation="2"/>
<feComposite in2="hardAlpha" operator="out"/>
<feColorMatrix type="matrix" values="0 0 0 0 0 0 0 0 0 0 0 0 0 0 0 0 0 0 0.25 0"/>
<feBlend mode="normal" in2="BackgroundImageFix" result="effect1_dropShadow_109_799"/>
<feBlend mode="normal" in="SourceGraphic" in2="effect1_dropShadow_109_799" result="shape"/>
</filter>
<filter id="filter10_i_109_799" x="1190.24" y="282.476" width="9.52393" height="21.0476" filterUnits="userSpaceOnUse" color-interpolation-filters="sRGB">
<feFlood flood-opacity="0" result="BackgroundImageFix"/>
<feBlend mode="normal" in="SourceGraphic" in2="BackgroundImageFix" result="shape"/>
<feColorMatrix in="SourceAlpha" type="matrix" values="0 0 0 0 0 0 0 0 0 0 0 0 0 0 0 0 0 0 127 0" result="hardAlpha"/>
<feOffset dy="-2"/>
<feGaussianBlur stdDeviation="2.5"/>
<feComposite in2="hardAlpha" operator="arithmetic" k2="-1" k3="1"/>
<feColorMatrix type="matrix" values="0 0 0 0 0.59074 0 0 0 0 0.691667 0 0 0 0 0.579271 0 0 0 1 0"/>
<feBlend mode="normal" in2="shape" result="effect1_innerShadow_109_799"/>
</filter>
<filter id="filter11_d_109_799" x="1167" y="168" width="58" height="58" filterUnits="userSpaceOnUse" color-interpolation-filters="sRGB">
<feFlood flood-opacity="0" result="BackgroundImageFix"/>
<feColorMatrix in="SourceAlpha" type="matrix" values="0 0 0 0 0 0 0 0 0 0 0 0 0 0 0 0 0 0 127 0" result="hardAlpha"/>
<feOffset dy="4"/>
<feGaussianBlur stdDeviation="2"/>
<feComposite in2="hardAlpha" operator="out"/>
<feColorMatrix type="matrix" values="0 0 0 0 0 0 0 0 0 0 0 0 0 0 0 0 0 0 0.25 0"/>
<feBlend mode="normal" in2="BackgroundImageFix" result="effect1_dropShadow_109_799"/>
<feBlend mode="normal" in="SourceGraphic" in2="effect1_dropShadow_109_799" result="shape"/>
</filter>
<filter id="filter12_i_109_799" x="1191.24" y="181.476" width="9.52393" height="21.0476" filterUnits="userSpaceOnUse" color-interpolation-filters="sRGB">
<feFlood flood-opacity="0" result="BackgroundImageFix"/>
<feBlend mode="normal" in="SourceGraphic" in2="BackgroundImageFix" result="shape"/>
<feColorMatrix in="SourceAlpha" type="matrix" values="0 0 0 0 0 0 0 0 0 0 0 0 0 0 0 0 0 0 127 0" result="hardAlpha"/>
<feOffset dy="-2"/>
<feGaussianBlur stdDeviation="2.5"/>
<feComposite in2="hardAlpha" operator="arithmetic" k2="-1" k3="1"/>
<feColorMatrix type="matrix" values="0 0 0 0 0.59074 0 0 0 0 0.691667 0 0 0 0 0.579271 0 0 0 1 0"/>
<feBlend mode="normal" in2="shape" result="effect1_innerShadow_109_799"/>
</filter>
<filter id="filter13_d_109_799" x="1116" y="218" width="58" height="58" filterUnits="userSpaceOnUse" color-interpolation-filters="sRGB">
<feFlood flood-opacity="0" result="BackgroundImageFix"/>
<feColorMatrix in="SourceAlpha" type="matrix" values="0 0 0 0 0 0 0 0 0 0 0 0 0 0 0 0 0 0 127 0" result="hardAlpha"/>
<feOffset dy="4"/>
<feGaussianBlur stdDeviation="2"/>
<feComposite in2="hardAlpha" operator="out"/>
<feColorMatrix type="matrix" values="0 0 0 0 0 0 0 0 0 0 0 0 0 0 0 0 0 0 0.25 0"/>
<feBlend mode="normal" in2="BackgroundImageFix" result="effect1_dropShadow_109_799"/>
<feBlend mode="normal" in="SourceGraphic" in2="effect1_dropShadow_109_799" result="shape"/>
</filter>
<filter id="filter14_i_109_799" x="1140.24" y="231.476" width="9.52393" height="21.0476" filterUnits="userSpaceOnUse" color-interpolation-filters="sRGB">
<feFlood flood-opacity="0" result="BackgroundImageFix"/>
<feBlend mode="normal" in="SourceGraphic" in2="BackgroundImageFix" result="shape"/>
<feColorMatrix in="SourceAlpha" type="matrix" values="0 0 0 0 0 0 0 0 0 0 0 0 0 0 0 0 0 0 127 0" result="hardAlpha"/>
<feOffset dy="-2"/>
<feGaussianBlur stdDeviation="2.5"/>
<feComposite in2="hardAlpha" operator="arithmetic" k2="-1" k3="1"/>
<feColorMatrix type="matrix" values="0 0 0 0 0.59074 0 0 0 0 0.691667 0 0 0 0 0.579271 0 0 0 1 0"/>
<feBlend mode="normal" in2="shape" result="effect1_innerShadow_109_799"/>
</filter>
<filter id="filter15_d_109_799" x="1214" y="218" width="58" height="58" filterUnits="userSpaceOnUse" color-interpolation-filters="sRGB">
<feFlood flood-opacity="0" result="BackgroundImageFix"/>
<feColorMatrix in="SourceAlpha" type="matrix" values="0 0 0 0 0 0 0 0 0 0 0 0 0 0 0 0 0 0 127 0" result="hardAlpha"/>
<feOffset dy="4"/>
<feGaussianBlur stdDeviation="2"/>
<feComposite in2="hardAlpha" operator="out"/>
<feColorMatrix type="matrix" values="0 0 0 0 0 0 0 0 0 0 0 0 0 0 0 0 0 0 0.25 0"/>
<feBlend mode="normal" in2="BackgroundImageFix" result="effect1_dropShadow_109_799"/>
<feBlend mode="normal" in="SourceGraphic" in2="effect1_dropShadow_109_799" result="shape"/>
</filter>
<filter id="filter16_i_109_799" x="1238.24" y="231.476" width="9.52393" height="21.0476" filterUnits="userSpaceOnUse" color-interpolation-filters="sRGB">
<feFlood flood-opacity="0" result="BackgroundImageFix"/>
<feBlend mode="normal" in="SourceGraphic" in2="BackgroundImageFix" result="shape"/>
<feColorMatrix in="SourceAlpha" type="matrix" values="0 0 0 0 0 0 0 0 0 0 0 0 0 0 0 0 0 0 127 0" result="hardAlpha"/>
<feOffset dy="-2"/>
<feGaussianBlur stdDeviation="2.5"/>
<feComposite in2="hardAlpha" operator="arithmetic" k2="-1" k3="1"/>
<feColorMatrix type="matrix" values="0 0 0 0 0.59074 0 0 0 0 0.691667 0 0 0 0 0.579271 0 0 0 1 0"/>
<feBlend mode="normal" in2="shape" result="effect1_innerShadow_109_799"/>
</filter>
<filter id="filter17_d_109_799" x="66.5" y="406.5" width="115" height="115" filterUnits="userSpaceOnUse" color-interpolation-filters="sRGB">
<feFlood flood-opacity="0" result="BackgroundImageFix"/>
<feColorMatrix in="SourceAlpha" type="matrix" values="0 0 0 0 0 0 0 0 0 0 0 0 0 0 0 0 0 0 127 0" result="hardAlpha"/>
<feOffset dy="4"/>
<feGaussianBlur stdDeviation="2"/>
<feComposite in2="hardAlpha" operator="out"/>
<feColorMatrix type="matrix" values="0 0 0 0 0 0 0 0 0 0 0 0 0 0 0 0 0 0 0.25 0"/>
<feBlend mode="normal" in2="BackgroundImageFix" result="effect1_dropShadow_109_799"/>
<feBlend mode="normal" in="SourceGraphic" in2="effect1_dropShadow_109_799" result="shape"/>
</filter>
</defs>
</svg>
