<svg width="382" height="107" viewBox="0 0 382 107" fill="none" xmlns="http://www.w3.org/2000/svg">
<g filter="url(#filter0_di_165_885)">
<g filter="url(#filter1_di_165_885)">
<mask id="path-1-inside-1_165_885" fill="white">
<rect x="13" y="9" width="356" height="81" rx="5"/>
</mask>
<rect x="13" y="9" width="356" height="81" rx="5" fill="#B48F4B"/>
<rect x="13" y="9" width="356" height="81" rx="5" stroke="#5D440E" stroke-width="20" mask="url(#path-1-inside-1_165_885)"/>
</g>
<rect x="18.46" y="12.2694" width="345.872" height="74.4612" rx="3.5" stroke="#C8A25C" stroke-width="3"/>
<mask id="path-3-inside-2_165_885" fill="white">
<ellipse cx="23.494" cy="14.2099" rx="2.17798" ry="1.08131"/>
</mask>
<path d="M22.672 14.2099C22.672 13.4921 22.9759 12.9686 23.2172 12.6853C23.442 12.4214 23.6483 12.3132 23.7 12.2875C23.8024 12.2367 23.7336 12.2913 23.494 12.2913V18.2913C24.4573 18.2913 25.4775 18.1038 26.3681 17.6616C27.0732 17.3115 28.672 16.2682 28.672 14.2099H22.672ZM23.494 12.2913C23.2544 12.2913 23.1857 12.2367 23.288 12.2875C23.3398 12.3132 23.546 12.4214 23.7708 12.6853C24.0122 12.9686 24.316 13.4921 24.316 14.2099H18.316C18.316 16.2682 19.9148 17.3115 20.6199 17.6616C21.5105 18.1038 22.5308 18.2913 23.494 18.2913V12.2913ZM24.316 14.2099C24.316 14.9278 24.0122 15.4513 23.7708 15.7346C23.546 15.9985 23.3398 16.1067 23.288 16.1324C23.1857 16.1832 23.2544 16.1286 23.494 16.1286V10.1286C22.5308 10.1286 21.5105 10.3161 20.6199 10.7583C19.9148 11.1083 18.316 12.1517 18.316 14.2099H24.316ZM23.494 16.1286C23.7336 16.1286 23.8024 16.1832 23.7 16.1324C23.6483 16.1067 23.442 15.9985 23.2172 15.7346C22.9759 15.4513 22.672 14.9278 22.672 14.2099H28.672C28.672 12.1517 27.0732 11.1083 26.3681 10.7583C25.4775 10.3161 24.4573 10.1286 23.494 10.1286V16.1286Z" fill="#5D440E" mask="url(#path-3-inside-2_165_885)"/>
<mask id="path-5-inside-3_165_885" fill="white">
<ellipse cx="23.494" cy="84.79" rx="2.17798" ry="1.08131"/>
</mask>
<path d="M22.672 84.79C22.672 84.0722 22.9759 83.5487 23.2172 83.2654C23.442 83.0015 23.6483 82.8932 23.7 82.8675C23.8024 82.8167 23.7336 82.8713 23.494 82.8713V88.8713C24.4573 88.8713 25.4775 88.6838 26.3681 88.2417C27.0732 87.8916 28.672 86.8483 28.672 84.79H22.672ZM23.494 82.8713C23.2544 82.8713 23.1857 82.8167 23.288 82.8675C23.3398 82.8932 23.546 83.0015 23.7708 83.2654C24.0122 83.5487 24.316 84.0722 24.316 84.79H18.316C18.316 86.8483 19.9148 87.8916 20.6199 88.2417C21.5105 88.6838 22.5308 88.8713 23.494 88.8713V82.8713ZM24.316 84.79C24.316 85.5079 24.0122 86.0314 23.7708 86.3146C23.546 86.5785 23.3398 86.6868 23.288 86.7125C23.1857 86.7633 23.2544 86.7087 23.494 86.7087V80.7087C22.5308 80.7087 21.5105 80.8962 20.6199 81.3383C19.9148 81.6884 18.316 82.7318 18.316 84.79H24.316ZM23.494 86.7087C23.7336 86.7087 23.8024 86.7633 23.7 86.7125C23.6483 86.6868 23.442 86.5785 23.2172 86.3146C22.9759 86.0314 22.672 85.5079 22.672 84.79H28.672C28.672 82.7318 27.0732 81.6884 26.3681 81.3383C25.4775 80.8962 24.4573 80.7087 23.494 80.7087V86.7087Z" fill="#5D440E" mask="url(#path-5-inside-3_165_885)"/>
<mask id="path-7-inside-4_165_885" fill="white">
<ellipse cx="358.506" cy="84.79" rx="2.17798" ry="1.08131"/>
</mask>
<path d="M357.684 84.79C357.684 84.0722 357.988 83.5487 358.229 83.2654C358.454 83.0015 358.66 82.8932 358.712 82.8675C358.814 82.8167 358.746 82.8713 358.506 82.8713V88.8713C359.469 88.8713 360.49 88.6838 361.38 88.2417C362.085 87.8916 363.684 86.8483 363.684 84.79H357.684ZM358.506 82.8713C358.266 82.8713 358.198 82.8167 358.3 82.8675C358.352 82.8932 358.558 83.0015 358.783 83.2654C359.024 83.5487 359.328 84.0722 359.328 84.79H353.328C353.328 86.8483 354.927 87.8916 355.632 88.2417C356.523 88.6838 357.543 88.8713 358.506 88.8713V82.8713ZM359.328 84.79C359.328 85.5079 359.024 86.0314 358.783 86.3146C358.558 86.5785 358.352 86.6868 358.3 86.7125C358.198 86.7633 358.266 86.7087 358.506 86.7087V80.7087C357.543 80.7087 356.523 80.8962 355.632 81.3383C354.927 81.6884 353.328 82.7318 353.328 84.79H359.328ZM358.506 86.7087C358.746 86.7087 358.814 86.7633 358.712 86.7125C358.66 86.6868 358.454 86.5785 358.229 86.3146C357.988 86.0314 357.684 85.5079 357.684 84.79H363.684C363.684 82.7318 362.085 81.6884 361.38 81.3383C360.49 80.8962 359.469 80.7087 358.506 80.7087V86.7087Z" fill="#5D440E" mask="url(#path-7-inside-4_165_885)"/>
<mask id="path-9-inside-5_165_885" fill="white">
<ellipse cx="358.506" cy="14.2099" rx="2.17798" ry="1.08131"/>
</mask>
<path d="M357.684 14.2099C357.684 13.4921 357.988 12.9686 358.229 12.6853C358.454 12.4214 358.66 12.3132 358.712 12.2875C358.814 12.2367 358.746 12.2913 358.506 12.2913V18.2913C359.469 18.2913 360.49 18.1038 361.38 17.6616C362.085 17.3115 363.684 16.2682 363.684 14.2099H357.684ZM358.506 12.2913C358.266 12.2913 358.198 12.2367 358.3 12.2875C358.352 12.3132 358.558 12.4214 358.783 12.6853C359.024 12.9686 359.328 13.4921 359.328 14.2099H353.328C353.328 16.2682 354.927 17.3115 355.632 17.6616C356.523 18.1038 357.543 18.2913 358.506 18.2913V12.2913ZM359.328 14.2099C359.328 14.9278 359.024 15.4513 358.783 15.7346C358.558 15.9985 358.352 16.1067 358.3 16.1324C358.198 16.1832 358.266 16.1286 358.506 16.1286V10.1286C357.543 10.1286 356.523 10.3161 355.632 10.7583C354.927 11.1083 353.328 12.1517 353.328 14.2099H359.328ZM358.506 16.1286C358.746 16.1286 358.814 16.1832 358.712 16.1324C358.66 16.1067 358.454 15.9985 358.229 15.7346C357.988 15.4513 357.684 14.9278 357.684 14.2099H363.684C363.684 12.1517 362.085 11.1083 361.38 10.7583C360.49 10.3161 359.469 10.1286 358.506 10.1286V16.1286Z" fill="#5D440E" mask="url(#path-9-inside-5_165_885)"/>
</g>
<defs>
<filter id="filter0_di_165_885" x="9" y="9" width="364" height="89" filterUnits="userSpaceOnUse" color-interpolation-filters="sRGB">
<feFlood flood-opacity="0" result="BackgroundImageFix"/>
<feColorMatrix in="SourceAlpha" type="matrix" values="0 0 0 0 0 0 0 0 0 0 0 0 0 0 0 0 0 0 127 0" result="hardAlpha"/>
<feOffset dy="4"/>
<feGaussianBlur stdDeviation="2"/>
<feComposite in2="hardAlpha" operator="out"/>
<feColorMatrix type="matrix" values="0 0 0 0 0 0 0 0 0 0 0 0 0 0 0 0 0 0 0.25 0"/>
<feBlend mode="normal" in2="BackgroundImageFix" result="effect1_dropShadow_165_885"/>
<feBlend mode="normal" in="SourceGraphic" in2="effect1_dropShadow_165_885" result="shape"/>
<feColorMatrix in="SourceAlpha" type="matrix" values="0 0 0 0 0 0 0 0 0 0 0 0 0 0 0 0 0 0 127 0" result="hardAlpha"/>
<feOffset dy="4"/>
<feGaussianBlur stdDeviation="4"/>
<feComposite in2="hardAlpha" operator="arithmetic" k2="-1" k3="1"/>
<feColorMatrix type="matrix" values="0 0 0 0 0 0 0 0 0 0 0 0 0 0 0 0 0 0 0.25 0"/>
<feBlend mode="normal" in2="shape" result="effect2_innerShadow_165_885"/>
</filter>
<filter id="filter1_di_165_885" x="0" y="0" width="382" height="107" filterUnits="userSpaceOnUse" color-interpolation-filters="sRGB">
<feFlood flood-opacity="0" result="BackgroundImageFix"/>
<feColorMatrix in="SourceAlpha" type="matrix" values="0 0 0 0 0 0 0 0 0 0 0 0 0 0 0 0 0 0 127 0" result="hardAlpha"/>
<feMorphology radius="5" operator="dilate" in="SourceAlpha" result="effect1_dropShadow_165_885"/>
<feOffset dy="4"/>
<feGaussianBlur stdDeviation="4"/>
<feComposite in2="hardAlpha" operator="out"/>
<feColorMatrix type="matrix" values="0 0 0 0 0 0 0 0 0 0 0 0 0 0 0 0 0 0 0.25 0"/>
<feBlend mode="normal" in2="BackgroundImageFix" result="effect1_dropShadow_165_885"/>
<feBlend mode="normal" in="SourceGraphic" in2="effect1_dropShadow_165_885" result="shape"/>
<feColorMatrix in="SourceAlpha" type="matrix" values="0 0 0 0 0 0 0 0 0 0 0 0 0 0 0 0 0 0 127 0" result="hardAlpha"/>
<feMorphology radius="10" operator="erode" in="SourceAlpha" result="effect2_innerShadow_165_885"/>
<feOffset dy="4"/>
<feGaussianBlur stdDeviation="4"/>
<feComposite in2="hardAlpha" operator="arithmetic" k2="-1" k3="1"/>
<feColorMatrix type="matrix" values="0 0 0 0 0.364706 0 0 0 0 0.266667 0 0 0 0 0.054902 0 0 0 1 0"/>
<feBlend mode="normal" in2="shape" result="effect2_innerShadow_165_885"/>
</filter>
</defs>
</svg>
