<svg width="106" height="31" viewBox="0 0 106 31" fill="none" xmlns="http://www.w3.org/2000/svg">
<path d="M20.923 0C18.623 0 16.5322 0.901881 14.945 2.37361C13.3563 0.901881 11.267 0 8.967 0C4.01423 0 0 4.14804 0 9.2659V30.8863H5.978V9.2659C5.978 7.55943 7.31558 6.17727 8.967 6.17727C10.6184 6.17727 11.956 7.55943 11.956 9.2659V30.8863H17.934V9.2659C17.934 7.55943 19.2716 6.17727 20.923 6.17727C22.5744 6.17727 23.912 7.55943 23.912 9.2659V30.8863H29.89V9.2659C29.89 4.14804 25.8758 0 20.923 0Z" fill="#333E3D"/>
<path d="M62 0V30.8863H67.978V6.17727H73.956V30.8863H79.934V6.17727C79.934 2.76587 77.2574 0 73.956 0H62Z" fill="#333E3D"/>
<path d="M56 6.2V0H44H38V31H56V24.8H44V18.6H53V12.4H44V6.2H56Z" fill="#333E3D"/>
<path d="M99.954 0V24.705H93.977V0H88V24.705C88 28.1158 90.6762 30.8812 93.977 30.8812H99.954C103.255 30.8812 105.931 28.1158 105.931 24.705V0H99.954Z" fill="#333E3D"/>
</svg>
