<svg width="278" height="107" viewBox="0 0 278 107" fill="none" xmlns="http://www.w3.org/2000/svg">
<g filter="url(#filter0_di_32_1056)">
<mask id="path-1-inside-1_32_1056" fill="white">
<rect x="13" y="9" width="252" height="81" rx="5"/>
</mask>
<rect x="13" y="9" width="252" height="81" rx="5" fill="#B48F4B"/>
<rect x="13" y="9" width="252" height="81" rx="5" stroke="#5D440E" stroke-width="20" mask="url(#path-1-inside-1_32_1056)"/>
</g>
<rect x="17.3031" y="12.2693" width="243.954" height="74.4612" rx="3.5" stroke="#C8A25C" stroke-width="3"/>
<mask id="path-3-inside-2_32_1056" fill="white">
<ellipse cx="20.4282" cy="14.21" rx="1.54171" ry="1.08131"/>
</mask>
<path d="M18.97 14.21C18.97 13.2636 19.5209 12.7112 19.7958 12.5185C20.0797 12.3193 20.3127 12.2913 20.4282 12.2913V18.2913C21.3953 18.2913 22.3991 18.0212 23.241 17.4307C24.0739 16.8466 24.97 15.7535 24.97 14.21H18.97ZM20.4282 12.2913C20.5438 12.2913 20.7768 12.3193 21.0607 12.5185C21.3356 12.7112 21.8865 13.2636 21.8865 14.21H15.8865C15.8865 15.7535 16.7826 16.8466 17.6154 17.4307C18.4574 18.0212 19.4612 18.2913 20.4282 18.2913V12.2913ZM21.8865 14.21C21.8865 15.1563 21.3356 15.7087 21.0607 15.9015C20.7768 16.1006 20.5438 16.1287 20.4282 16.1287V10.1287C19.4612 10.1287 18.4574 10.3988 17.6154 10.9893C16.7826 11.5734 15.8865 12.6664 15.8865 14.21H21.8865ZM20.4282 16.1287C20.3127 16.1287 20.0797 16.1006 19.7958 15.9015C19.5209 15.7087 18.97 15.1563 18.97 14.21H24.97C24.97 12.6664 24.0739 11.5734 23.241 10.9893C22.3991 10.3988 21.3953 10.1287 20.4282 10.1287V16.1287Z" fill="#5D440E" mask="url(#path-3-inside-2_32_1056)"/>
<mask id="path-5-inside-3_32_1056" fill="white">
<ellipse cx="20.4282" cy="84.79" rx="1.54171" ry="1.08131"/>
</mask>
<path d="M18.97 84.79C18.97 83.8436 19.5209 83.2912 19.7958 83.0985C20.0797 82.8993 20.3127 82.8713 20.4282 82.8713V88.8713C21.3953 88.8713 22.3991 88.6012 23.241 88.0107C24.0739 87.4266 24.97 86.3336 24.97 84.79H18.97ZM20.4282 82.8713C20.5438 82.8713 20.7768 82.8993 21.0607 83.0985C21.3356 83.2912 21.8865 83.8436 21.8865 84.79H15.8865C15.8865 86.3336 16.7826 87.4266 17.6154 88.0107C18.4574 88.6012 19.4612 88.8713 20.4282 88.8713V82.8713ZM21.8865 84.79C21.8865 85.7364 21.3356 86.2887 21.0607 86.4815C20.7768 86.6806 20.5438 86.7087 20.4282 86.7087V80.7087C19.4612 80.7087 18.4574 80.9788 17.6154 81.5693C16.7826 82.1534 15.8865 83.2464 15.8865 84.79H21.8865ZM20.4282 86.7087C20.3127 86.7087 20.0797 86.6806 19.7958 86.4815C19.5209 86.2887 18.97 85.7364 18.97 84.79H24.97C24.97 83.2464 24.0739 82.1534 23.241 81.5693C22.3991 80.9788 21.3953 80.7087 20.4282 80.7087V86.7087Z" fill="#5D440E" mask="url(#path-5-inside-3_32_1056)"/>
<mask id="path-7-inside-4_32_1056" fill="white">
<ellipse cx="257.572" cy="84.79" rx="1.54171" ry="1.08131"/>
</mask>
<path d="M256.113 84.79C256.113 83.8436 256.664 83.2912 256.939 83.0985C257.223 82.8993 257.456 82.8713 257.572 82.8713V88.8713C258.539 88.8713 259.543 88.6012 260.385 88.0107C261.217 87.4266 262.113 86.3336 262.113 84.79H256.113ZM257.572 82.8713C257.687 82.8713 257.92 82.8993 258.204 83.0985C258.479 83.2912 259.03 83.8436 259.03 84.79H253.03C253.03 86.3336 253.926 87.4266 254.759 88.0107C255.601 88.6012 256.605 88.8713 257.572 88.8713V82.8713ZM259.03 84.79C259.03 85.7364 258.479 86.2887 258.204 86.4815C257.92 86.6806 257.687 86.7087 257.572 86.7087V80.7087C256.605 80.7087 255.601 80.9788 254.759 81.5693C253.926 82.1534 253.03 83.2464 253.03 84.79H259.03ZM257.572 86.7087C257.456 86.7087 257.223 86.6806 256.939 86.4815C256.664 86.2887 256.113 85.7364 256.113 84.79H262.113C262.113 83.2464 261.217 82.1534 260.385 81.5693C259.543 80.9788 258.539 80.7087 257.572 80.7087V86.7087Z" fill="#5D440E" mask="url(#path-7-inside-4_32_1056)"/>
<mask id="path-9-inside-5_32_1056" fill="white">
<ellipse cx="257.572" cy="14.21" rx="1.54171" ry="1.08131"/>
</mask>
<path d="M256.113 14.21C256.113 13.2636 256.664 12.7112 256.939 12.5185C257.223 12.3193 257.456 12.2913 257.572 12.2913V18.2913C258.539 18.2913 259.543 18.0212 260.385 17.4307C261.217 16.8466 262.113 15.7535 262.113 14.21H256.113ZM257.572 12.2913C257.687 12.2913 257.92 12.3193 258.204 12.5185C258.479 12.7112 259.03 13.2636 259.03 14.21H253.03C253.03 15.7535 253.926 16.8466 254.759 17.4307C255.601 18.0212 256.605 18.2913 257.572 18.2913V12.2913ZM259.03 14.21C259.03 15.1563 258.479 15.7087 258.204 15.9015C257.92 16.1006 257.687 16.1287 257.572 16.1287V10.1287C256.605 10.1287 255.601 10.3988 254.759 10.9893C253.926 11.5734 253.03 12.6664 253.03 14.21H259.03ZM257.572 16.1287C257.456 16.1287 257.223 16.1006 256.939 15.9015C256.664 15.7087 256.113 15.1563 256.113 14.21H262.113C262.113 12.6664 261.217 11.5734 260.385 10.9893C259.543 10.3988 258.539 10.1287 257.572 10.1287V16.1287Z" fill="#5D440E" mask="url(#path-9-inside-5_32_1056)"/>
<defs>
<filter id="filter0_di_32_1056" x="0" y="0" width="278" height="107" filterUnits="userSpaceOnUse" color-interpolation-filters="sRGB">
<feFlood flood-opacity="0" result="BackgroundImageFix"/>
<feColorMatrix in="SourceAlpha" type="matrix" values="0 0 0 0 0 0 0 0 0 0 0 0 0 0 0 0 0 0 127 0" result="hardAlpha"/>
<feMorphology radius="5" operator="dilate" in="SourceAlpha" result="effect1_dropShadow_32_1056"/>
<feOffset dy="4"/>
<feGaussianBlur stdDeviation="4"/>
<feComposite in2="hardAlpha" operator="out"/>
<feColorMatrix type="matrix" values="0 0 0 0 0 0 0 0 0 0 0 0 0 0 0 0 0 0 0.25 0"/>
<feBlend mode="normal" in2="BackgroundImageFix" result="effect1_dropShadow_32_1056"/>
<feBlend mode="normal" in="SourceGraphic" in2="effect1_dropShadow_32_1056" result="shape"/>
<feColorMatrix in="SourceAlpha" type="matrix" values="0 0 0 0 0 0 0 0 0 0 0 0 0 0 0 0 0 0 127 0" result="hardAlpha"/>
<feMorphology radius="10" operator="erode" in="SourceAlpha" result="effect2_innerShadow_32_1056"/>
<feOffset dy="4"/>
<feGaussianBlur stdDeviation="4"/>
<feComposite in2="hardAlpha" operator="arithmetic" k2="-1" k3="1"/>
<feColorMatrix type="matrix" values="0 0 0 0 0.364706 0 0 0 0 0.266667 0 0 0 0 0.054902 0 0 0 1 0"/>
<feBlend mode="normal" in2="shape" result="effect2_innerShadow_32_1056"/>
</filter>
</defs>
</svg>
